<svg width="122" height="102" viewBox="0 0 122 102" fill="none" xmlns="http://www.w3.org/2000/svg">
<path d="M2 14.1322C5.17001 9.96467 11.7482 8.88627 16.4663 7.59739C24.0369 5.5293 31.3331 3.42606 39.1902 2.76734C53.8951 1.53451 69.3113 1.60933 83.8184 4.31422C91.8855 5.81836 97.62 9.16558 102.161 15.9632C107.844 24.4697 109.03 37.3192 108.969 47.3427C108.89 60.2067 103.856 71.6672 97.2447 82.321C94.4483 86.8269 90.9709 90.7505 86.781 94.0015C84.7117 95.6071 84.3338 96.4698 84.2281 93.5596C83.9667 86.3581 82.6701 79.2358 82.5577 72.0296C82.5164 69.3852 82.5577 65.791 82.5577 70.9247C82.5577 79.9031 81.9707 89.5762 83.1565 98.4843C83.5173 101.195 84.5063 99.6923 86.2767 98.4212C96.2217 91.2813 107.701 85.3226 120 84.0258" stroke="url(#paint0_linear_3_1449)" stroke-width="3" stroke-linecap="round"/>
<defs>
<linearGradient id="paint0_linear_3_1449" x1="2" y1="10.5" x2="72.5" y2="108" gradientUnits="userSpaceOnUse">
<stop stop-color="#5922F3" stop-opacity="0"/>
<stop offset="1" stop-color="#5922F3"/>
</linearGradient>
</defs>
</svg>
