<svg width="48" height="48" viewBox="0 0 48 48" fill="none" xmlns="http://www.w3.org/2000/svg">
<rect width="48" height="48" rx="8" fill="#2697FF" fill-opacity="0.12"/>
<path fill-rule="evenodd" clip-rule="evenodd" d="M13.6499 22.6099C20.0923 19.7874 24.3883 17.9267 26.5378 17.0277C32.675 14.4608 33.9503 14.0149 34.7815 14.0002C34.9643 13.9969 35.3731 14.0425 35.6379 14.2585C35.8614 14.4409 35.9229 14.6874 35.9524 14.8603C35.9818 15.0333 36.0185 15.4273 35.9893 15.7351C35.6568 19.249 34.2177 27.7762 33.4856 31.7118C33.1758 33.3771 32.5658 33.9354 31.9753 33.9901C30.6919 34.1088 29.7174 33.1372 28.4744 32.3179C26.5294 31.0358 25.4305 30.2377 23.5425 28.9867C21.3606 27.5408 22.7751 26.7462 24.0185 25.4475C24.344 25.1076 29.9985 19.9358 30.1079 19.4667C30.1216 19.408 30.1343 19.1893 30.0051 19.0738C29.8759 18.9583 29.6851 18.9978 29.5475 19.0292C29.3524 19.0737 26.2452 21.1389 20.2258 25.2247C19.3439 25.8337 18.545 26.1304 17.8292 26.1149C17.0402 26.0977 15.5223 25.6663 14.394 25.2974C13.01 24.8451 11.91 24.6059 12.0058 23.8376C12.0557 23.4374 12.6037 23.0282 13.6499 22.6099Z" fill="#2697FF"/>
</svg>
