<svg width="20" height="20" viewBox="0 0 20 20" fill="none" xmlns="http://www.w3.org/2000/svg">
<path d="M20.8 0H-0.799988V2.21667H20.8V0Z" fill="#DC4437"/>
<path d="M20.8 4.44995H-0.799988V6.66662H20.8V4.44995Z" fill="#DC4437"/>
<path d="M20.8 13.3334H-0.799988V15.55H20.8V13.3334Z" fill="#DC4437"/>
<path d="M20.8 17.7833H-0.799988V20H20.8V17.7833Z" fill="#DC4437"/>
<path d="M20.8 8.8833H-0.799988V11.1H20.8V8.8833Z" fill="#DC4437"/>
<path d="M20.8 2.21667H-0.799988V4.43334H20.8V2.21667Z" fill="white"/>
<path d="M20.8 6.66663H-0.799988V8.88329H20.8V6.66663Z" fill="white"/>
<path d="M20.8 15.55H-0.799988V17.7667H20.8V15.55Z" fill="white"/>
<path d="M20.8 11.1167H-0.799988V13.3334H20.8V11.1167Z" fill="white"/>
<path d="M10.8308 0H-0.799988V11.1167H10.8308V0Z" fill="#2A66B7"/>
<path d="M1.44305 0.666748L1.82521 1.48341L2.68921 1.61675L2.05782 2.26675L2.20736 3.16675L1.44305 2.73341L0.678746 3.16675L0.828284 2.26675L0.196899 1.61675L1.0609 1.48341L1.44305 0.666748Z" fill="white"/>
<path d="M4.84924 0.666748L5.2314 1.48341L6.0954 1.61675L5.48063 2.26675L5.61355 3.16675L4.84924 2.73341L4.08493 3.16675L4.21786 2.26675L3.60309 1.61675L4.46709 1.48341L4.84924 0.666748Z" fill="white"/>
<path d="M8.25537 0.666748L8.63752 1.48341L9.50152 1.61675L8.87014 2.26675L9.01968 3.16675L8.25537 2.73341L7.49106 3.16675L7.6406 2.26675L7.00922 1.61675L7.87322 1.48341L8.25537 0.666748Z" fill="white"/>
<path d="M3.18768 4L3.56984 4.81667L4.43384 4.95L3.81907 5.6L3.95199 6.5L3.18768 6.06667L2.42337 6.5L2.5563 5.6L1.94153 4.95L2.80553 4.81667L3.18768 4Z" fill="white"/>
<path d="M6.59384 4L6.97599 4.81667L7.83999 4.95L7.20861 5.6L7.35815 6.5L6.59384 6.06667L5.82953 6.5L5.97907 5.6L5.34769 4.95L6.21169 4.81667L6.59384 4Z" fill="white"/>
<path d="M1.44305 7.53333L1.82521 8.34999L2.68921 8.48333L2.05782 9.11666L2.20736 10.0333L1.44305 9.59999L0.678746 10.0333L0.828284 9.11666L0.196899 8.48333L1.0609 8.34999L1.44305 7.53333Z" fill="white"/>
<path d="M4.84924 7.53333L5.2314 8.34999L6.0954 8.48333L5.48063 9.11666L5.61355 10.0333L4.84924 9.59999L4.08493 10.0333L4.21786 9.11666L3.60309 8.48333L4.46709 8.34999L4.84924 7.53333Z" fill="white"/>
<path d="M8.25537 7.53333L8.63752 8.34999L9.50152 8.48333L8.87014 9.11666L9.01968 10.0333L8.25537 9.59999L7.49106 10.0333L7.6406 9.11666L7.00922 8.48333L7.87322 8.34999L8.25537 7.53333Z" fill="white"/>
</svg>
